<svg xmlns="http://www.w3.org/2000/svg" xml:space="preserve" width="662" height="436" viewBox="0 0 662 436" font-family="ui-monospace, 'SF Mono', Menlo, Consolas, 'DejaVu Sans Mono', 'Liberation Mono', monospace" font-size="13px">
<style>text{white-space:pre;fill:#dce7ff}</style>
<rect width="662" height="436" rx="9" fill="#0a0c16" stroke="#24345c"/>
<circle cx="19" cy="17" r="5" fill="#ff5f8f"/><circle cx="37" cy="17" r="5" fill="#ffd479"/><circle cx="55" cy="17" r="5" fill="#72f1b8"/>
<text x="331" y="21" text-anchor="middle" fill="#5a6b94" font-size="12px">flatline  ·  render static</text>
<line x1="0" y1="32" x2="662" y2="32" stroke="#24345c"/>
<text x="18" y="56.0" textLength="595.08" lengthAdjust="spacingAndGlyphs"><tspan fill="#ff5fd7">───</tspan><tspan fill="#00f0ff"> Static </tspan><tspan fill="#ff5fd7">─────────────────────────────────────────────────────────────────</tspan></text>
<rect x="33.7" y="60.0" width="7.83" height="17.0" fill="#aaaaaa"/>
<rect x="41.5" y="60.0" width="7.83" height="17.0" fill="#565656"/>
<rect x="49.3" y="60.0" width="7.83" height="17.0" fill="#323232"/>
<rect x="57.1" y="60.0" width="7.83" height="17.0" fill="#4d4d4d"/>
<rect x="65.0" y="60.0" width="7.83" height="17.0" fill="#4d4d4d"/>
<rect x="72.8" y="60.0" width="7.83" height="17.0" fill="#a1a1a1"/>
<rect x="80.6" y="60.0" width="7.83" height="17.0" fill="#252525"/>
<rect x="88.5" y="60.0" width="7.83" height="17.0" fill="#2e2e2e"/>
<rect x="96.3" y="60.0" width="7.83" height="17.0" fill="#505050"/>
<rect x="104.1" y="60.0" width="7.83" height="17.0" fill="#a3a3a3"/>
<rect x="112.0" y="60.0" width="7.83" height="17.0" fill="#868686"/>
<rect x="119.8" y="60.0" width="7.83" height="17.0" fill="#222222"/>
<rect x="127.6" y="60.0" width="7.83" height="17.0" fill="#1e1e1e"/>
<rect x="135.4" y="60.0" width="7.83" height="17.0" fill="#272727"/>
<rect x="143.3" y="60.0" width="7.83" height="17.0" fill="#333333"/>
<rect x="151.1" y="60.0" width="7.83" height="17.0" fill="#383838"/>
<rect x="158.9" y="60.0" width="7.83" height="17.0" fill="#8b8b8b"/>
<rect x="166.8" y="60.0" width="7.83" height="17.0" fill="#515151"/>
<rect x="174.6" y="60.0" width="7.83" height="17.0" fill="#585858"/>
<rect x="182.4" y="60.0" width="7.83" height="17.0" fill="#414141"/>
<rect x="190.3" y="60.0" width="7.83" height="17.0" fill="#2d2d2d"/>
<rect x="198.1" y="60.0" width="7.83" height="17.0" fill="#5a5a5a"/>
<rect x="205.9" y="60.0" width="7.83" height="17.0" fill="#808080"/>
<rect x="213.8" y="60.0" width="7.83" height="17.0" fill="#3b3b3b"/>
<rect x="221.6" y="60.0" width="7.83" height="17.0" fill="#3b3b3b"/>
<rect x="229.4" y="60.0" width="7.83" height="17.0" fill="#585858"/>
<rect x="237.2" y="60.0" width="7.83" height="17.0" fill="#5a5a5a"/>
<rect x="245.1" y="60.0" width="7.83" height="17.0" fill="#f0f0f0"/>
<rect x="252.9" y="60.0" width="7.83" height="17.0" fill="#f0f0f0"/>
<rect x="260.7" y="60.0" width="7.83" height="17.0" fill="#f0f0f0"/>
<rect x="268.6" y="60.0" width="39.15" height="17.0" fill="#f0f0f0"/>
<rect x="307.7" y="60.0" width="7.83" height="17.0" fill="#585858"/>
<rect x="315.5" y="60.0" width="7.83" height="17.0" fill="#939393"/>
<rect x="323.4" y="60.0" width="7.83" height="17.0" fill="#e62828"/>
<rect x="331.2" y="60.0" width="7.83" height="17.0" fill="#797979"/>
<rect x="339.0" y="60.0" width="7.83" height="17.0" fill="#2e2e2e"/>
<text x="18" y="73.0" textLength="328.86" lengthAdjust="spacingAndGlyphs">  <tspan fill="#3d3d3d">▀</tspan><tspan fill="#1f1f1f">▀</tspan><tspan fill="#232323">▀</tspan><tspan fill="#525252">▀</tspan><tspan fill="#696969">▀</tspan><tspan fill="#424242">▀</tspan><tspan fill="#969696">▀</tspan><tspan fill="#1f1f1f">▀</tspan><tspan fill="#1e1e1e">▀</tspan><tspan fill="#1e1e1e">▀</tspan><tspan fill="#1e1e1e">▀</tspan><tspan fill="#8a8a8a">▀</tspan><tspan fill="#1f1f1f">▀</tspan><tspan fill="#272727">▀</tspan><tspan fill="#c7c7c7">▀</tspan><tspan fill="#282828">▀</tspan><tspan fill="#454545">▀</tspan><tspan fill="#878787">▀</tspan><tspan fill="#1e1e1e">▀</tspan><tspan fill="#585858">▀</tspan><tspan fill="#282828">▀</tspan><tspan fill="#bababa">▀</tspan><tspan fill="#1e1e1e">▀</tspan><tspan fill="#2d2d2d">▀</tspan><tspan fill="#4b4b4b">▀</tspan><tspan fill="#585858">▀</tspan><tspan fill="#282828">▀</tspan><tspan fill="#949494">▀</tspan><tspan fill="#202020">▀</tspan><tspan fill="#3f3f3f">▀</tspan><tspan fill="#f0f0f0">▀▀▀▀▀</tspan><tspan fill="#f0f0f0">▀</tspan><tspan fill="#f0f0f0">▀</tspan><tspan fill="#f0f0f0">▀</tspan><tspan fill="#323232">▀</tspan><tspan fill="#616161">▀</tspan></text>
<rect x="33.7" y="77.0" width="7.83" height="17.0" fill="#4a4a4a"/>
<rect x="41.5" y="77.0" width="7.83" height="17.0" fill="#3b3b3b"/>
<rect x="49.3" y="77.0" width="7.83" height="17.0" fill="#b5b5b5"/>
<rect x="57.1" y="77.0" width="7.83" height="17.0" fill="#494949"/>
<rect x="65.0" y="77.0" width="7.83" height="17.0" fill="#4c4c4c"/>
<rect x="72.8" y="77.0" width="7.83" height="17.0" fill="#1f1f1f"/>
<rect x="80.6" y="77.0" width="7.83" height="17.0" fill="#2a2a2a"/>
<rect x="88.5" y="77.0" width="7.83" height="17.0" fill="#979797"/>
<rect x="96.3" y="77.0" width="7.83" height="17.0" fill="#494949"/>
<rect x="104.1" y="77.0" width="7.83" height="17.0" fill="#8f8f8f"/>
<rect x="112.0" y="77.0" width="7.83" height="17.0" fill="#858585"/>
<rect x="119.8" y="77.0" width="7.83" height="17.0" fill="#c3c3c3"/>
<rect x="127.6" y="77.0" width="7.83" height="17.0" fill="#a2a2a2"/>
<rect x="135.4" y="77.0" width="7.83" height="17.0" fill="#838383"/>
<rect x="143.3" y="77.0" width="7.83" height="17.0" fill="#2c2c2c"/>
<rect x="151.1" y="77.0" width="7.83" height="17.0" fill="#929292"/>
<rect x="158.9" y="77.0" width="7.83" height="17.0" fill="#505050"/>
<rect x="166.8" y="77.0" width="7.83" height="17.0" fill="#373737"/>
<rect x="174.6" y="77.0" width="7.83" height="17.0" fill="#9c9c9c"/>
<rect x="182.4" y="77.0" width="7.83" height="17.0" fill="#343434"/>
<rect x="190.3" y="77.0" width="7.83" height="17.0" fill="#737373"/>
<rect x="198.1" y="77.0" width="7.83" height="17.0" fill="#f0f0f0"/>
<rect x="205.9" y="77.0" width="7.83" height="17.0" fill="#f0f0f0"/>
<rect x="213.8" y="77.0" width="7.83" height="17.0" fill="#f0f0f0"/>
<rect x="221.6" y="77.0" width="23.49" height="17.0" fill="#f0f0f0"/>
<rect x="245.1" y="77.0" width="7.83" height="17.0" fill="#282828"/>
<rect x="252.9" y="77.0" width="7.83" height="17.0" fill="#5b5b5b"/>
<rect x="260.7" y="77.0" width="7.83" height="17.0" fill="#848484"/>
<rect x="268.6" y="77.0" width="7.83" height="17.0" fill="#848484"/>
<rect x="276.4" y="77.0" width="7.83" height="17.0" fill="#626262"/>
<rect x="284.2" y="77.0" width="7.83" height="17.0" fill="#242424"/>
<rect x="292.1" y="77.0" width="7.83" height="17.0" fill="#252525"/>
<rect x="299.9" y="77.0" width="7.83" height="17.0" fill="#242424"/>
<rect x="307.7" y="77.0" width="7.83" height="17.0" fill="#989898"/>
<rect x="315.5" y="77.0" width="7.83" height="17.0" fill="#777777"/>
<rect x="323.4" y="77.0" width="7.83" height="17.0" fill="#636363"/>
<rect x="331.2" y="77.0" width="7.83" height="17.0" fill="#636363"/>
<rect x="339.0" y="77.0" width="7.83" height="17.0" fill="#1e1e1e"/>
<text x="18" y="90.0" textLength="399.33" lengthAdjust="spacingAndGlyphs">  <tspan fill="#898989">▀</tspan><tspan fill="#b3b3b3">▀</tspan><tspan fill="#b1b1b1">▀</tspan><tspan fill="#333333">▀</tspan><tspan fill="#212121">▀</tspan><tspan fill="#4d4d4d">▀</tspan><tspan fill="#5b5b5b">▀</tspan><tspan fill="#666666">▀</tspan><tspan fill="#b1b1b1">▀</tspan><tspan fill="#626262">▀</tspan><tspan fill="#444444">▀</tspan><tspan fill="#212121">▀</tspan><tspan fill="#202020">▀</tspan><tspan fill="#b3b3b3">▀</tspan><tspan fill="#424242">▀</tspan><tspan fill="#1f1f1f">▀</tspan><tspan fill="#1f1f1f">▀</tspan><tspan fill="#2d2d2d">▀</tspan><tspan fill="#414141">▀</tspan><tspan fill="#1e1e1e">▀</tspan><tspan fill="#2f2f2f">▀</tspan><tspan fill="#484848">▀</tspan><tspan fill="#1f1f1f">▀</tspan><tspan fill="#272727">▀</tspan><tspan fill="#f0f0f0">▀▀▀</tspan><tspan fill="#f0f0f0">▀</tspan><tspan fill="#f0f0f0">▀</tspan><tspan fill="#f0f0f0">▀</tspan><tspan fill="#848484">▀</tspan><tspan fill="#292929">▀</tspan><tspan fill="#545454">▀</tspan><tspan fill="#2c2c2c">▀</tspan><tspan fill="#858585">▀</tspan><tspan fill="#2b2b2b">▀</tspan><tspan fill="#a1a1a1">▀</tspan><tspan fill="#242424">▀</tspan><tspan fill="#b9b9b9">▀</tspan><tspan fill="#8f8f8f">▀</tspan>   <tspan fill="#5a6b94">Static</tspan></text>
<rect x="33.7" y="94.0" width="7.83" height="17.0" fill="#5e5e5e"/>
<rect x="41.5" y="94.0" width="7.83" height="17.0" fill="#434343"/>
<rect x="49.3" y="94.0" width="7.83" height="17.0" fill="#1f1f1f"/>
<rect x="57.1" y="94.0" width="7.83" height="17.0" fill="#9d9d9d"/>
<rect x="65.0" y="94.0" width="7.83" height="17.0" fill="#5f5f5f"/>
<rect x="72.8" y="94.0" width="7.83" height="17.0" fill="#343434"/>
<rect x="80.6" y="94.0" width="7.83" height="17.0" fill="#2c2c2c"/>
<rect x="88.5" y="94.0" width="7.83" height="17.0" fill="#1f1f1f"/>
<rect x="96.3" y="94.0" width="7.83" height="17.0" fill="#484848"/>
<rect x="104.1" y="94.0" width="7.83" height="17.0" fill="#898989"/>
<rect x="112.0" y="94.0" width="7.83" height="17.0" fill="#848484"/>
<rect x="119.8" y="94.0" width="7.83" height="17.0" fill="#7d7d7d"/>
<rect x="127.6" y="94.0" width="7.83" height="17.0" fill="#3d3d3d"/>
<rect x="135.4" y="94.0" width="7.83" height="17.0" fill="#6e6e6e"/>
<rect x="143.3" y="94.0" width="7.83" height="17.0" fill="#7b7b7b"/>
<rect x="151.1" y="94.0" width="7.83" height="17.0" fill="#f0f0f0"/>
<rect x="158.9" y="94.0" width="7.83" height="17.0" fill="#f0f0f0"/>
<rect x="166.8" y="94.0" width="7.83" height="17.0" fill="#f0f0f0"/>
<rect x="174.6" y="94.0" width="23.49" height="17.0" fill="#f0f0f0"/>
<rect x="198.1" y="94.0" width="7.83" height="17.0" fill="#1f1f1f"/>
<rect x="205.9" y="94.0" width="7.83" height="17.0" fill="#404040"/>
<rect x="213.8" y="94.0" width="7.83" height="17.0" fill="#555555"/>
<rect x="221.6" y="94.0" width="7.83" height="17.0" fill="#515151"/>
<rect x="229.4" y="94.0" width="7.83" height="17.0" fill="#252525"/>
<rect x="237.2" y="94.0" width="7.83" height="17.0" fill="#3e3e3e"/>
<rect x="245.1" y="94.0" width="7.83" height="17.0" fill="#868686"/>
<rect x="252.9" y="94.0" width="7.83" height="17.0" fill="#7b7b7b"/>
<rect x="260.7" y="94.0" width="7.83" height="17.0" fill="#aaaaaa"/>
<rect x="268.6" y="94.0" width="7.83" height="17.0" fill="#1f1f1f"/>
<rect x="276.4" y="94.0" width="7.83" height="17.0" fill="#343434"/>
<rect x="284.2" y="94.0" width="7.83" height="17.0" fill="#656565"/>
<rect x="292.1" y="94.0" width="7.83" height="17.0" fill="#818181"/>
<rect x="299.9" y="94.0" width="7.83" height="17.0" fill="#212121"/>
<rect x="307.7" y="94.0" width="7.83" height="17.0" fill="#515151"/>
<rect x="315.5" y="94.0" width="7.83" height="17.0" fill="#2e2e2e"/>
<rect x="323.4" y="94.0" width="7.83" height="17.0" fill="#494949"/>
<rect x="331.2" y="94.0" width="7.83" height="17.0" fill="#6a6a6a"/>
<rect x="339.0" y="94.0" width="7.83" height="17.0" fill="#616161"/>
<text x="18" y="107.0" textLength="328.86" lengthAdjust="spacingAndGlyphs">  <tspan fill="#595959">▀</tspan><tspan fill="#7e7e7e">▀</tspan><tspan fill="#939393">▀</tspan><tspan fill="#535353">▀</tspan><tspan fill="#a1a1a1">▀</tspan><tspan fill="#c1c1c1">▀</tspan><tspan fill="#a4a4a4">▀</tspan><tspan fill="#444444">▀</tspan><tspan fill="#343434">▀</tspan><tspan fill="#8b8b8b">▀</tspan><tspan fill="#c5c5c5">▀</tspan><tspan fill="#272727">▀</tspan><tspan fill="#353535">▀</tspan><tspan fill="#858585">▀</tspan><tspan fill="#a0a0a0">▀</tspan><tspan fill="#a3a3a3">▀</tspan><tspan fill="#525252">▀</tspan><tspan fill="#1e1e1e">▀</tspan><tspan fill="#f0f0f0">▀▀▀</tspan><tspan fill="#f0f0f0">▀</tspan><tspan fill="#f0f0f0">▀</tspan><tspan fill="#f0f0f0">▀</tspan><tspan fill="#202020">▀</tspan><tspan fill="#767676">▀</tspan><tspan fill="#2c2c2c">▀</tspan><tspan fill="#343434">▀</tspan><tspan fill="#686868">▀</tspan><tspan fill="#252525">▀</tspan><tspan fill="#adadad">▀</tspan><tspan fill="#898989">▀</tspan><tspan fill="#1f1f1f">▀</tspan><tspan fill="#323232">▀</tspan><tspan fill="#5a5a5a">▀</tspan><tspan fill="#505050">▀</tspan><tspan fill="#1f1f1f">▀</tspan><tspan fill="#929292">▀</tspan><tspan fill="#3b3b3b">▀</tspan><tspan fill="#1e1e1e">▀</tspan></text>
<rect x="33.7" y="111.0" width="7.83" height="17.0" fill="#797979"/>
<rect x="41.5" y="111.0" width="7.83" height="17.0" fill="#303030"/>
<rect x="49.3" y="111.0" width="7.83" height="17.0" fill="#242424"/>
<rect x="57.1" y="111.0" width="7.83" height="17.0" fill="#9b9b9b"/>
<rect x="65.0" y="111.0" width="7.83" height="17.0" fill="#c0c0c0"/>
<rect x="72.8" y="111.0" width="7.83" height="17.0" fill="#2e2e2e"/>
<rect x="80.6" y="111.0" width="7.83" height="17.0" fill="#424242"/>
<rect x="88.5" y="111.0" width="7.83" height="17.0" fill="#1e1e1e"/>
<rect x="96.3" y="111.0" width="7.83" height="17.0" fill="#565656"/>
<rect x="104.1" y="111.0" width="7.83" height="17.0" fill="#454545"/>
<rect x="112.0" y="111.0" width="7.83" height="17.0" fill="#f0f0f0"/>
<rect x="119.8" y="111.0" width="7.83" height="17.0" fill="#f0f0f0"/>
<rect x="127.6" y="111.0" width="7.83" height="17.0" fill="#f0f0f0"/>
<rect x="135.4" y="111.0" width="15.66" height="17.0" fill="#f0f0f0"/>
<rect x="151.1" y="111.0" width="7.83" height="17.0" fill="#2a2a2a"/>
<rect x="158.9" y="111.0" width="7.83" height="17.0" fill="#323232"/>
<rect x="166.8" y="111.0" width="7.83" height="17.0" fill="#595959"/>
<rect x="174.6" y="111.0" width="7.83" height="17.0" fill="#c5c5c5"/>
<rect x="182.4" y="111.0" width="7.83" height="17.0" fill="#7b7b7b"/>
<rect x="190.3" y="111.0" width="7.83" height="17.0" fill="#848484"/>
<rect x="198.1" y="111.0" width="7.83" height="17.0" fill="#9d9d9d"/>
<rect x="205.9" y="111.0" width="7.83" height="17.0" fill="#4f4f4f"/>
<rect x="213.8" y="111.0" width="7.83" height="17.0" fill="#4b4b4b"/>
<rect x="221.6" y="111.0" width="7.83" height="17.0" fill="#565656"/>
<rect x="229.4" y="111.0" width="7.83" height="17.0" fill="#858585"/>
<rect x="237.2" y="111.0" width="7.83" height="17.0" fill="#8d8d8d"/>
<rect x="245.1" y="111.0" width="7.83" height="17.0" fill="#2d2d2d"/>
<rect x="252.9" y="111.0" width="7.83" height="17.0" fill="#959595"/>
<rect x="260.7" y="111.0" width="7.83" height="17.0" fill="#1e1e1e"/>
<rect x="268.6" y="111.0" width="7.83" height="17.0" fill="#464646"/>
<rect x="276.4" y="111.0" width="7.83" height="17.0" fill="#222222"/>
<rect x="284.2" y="111.0" width="7.83" height="17.0" fill="#232323"/>
<rect x="292.1" y="111.0" width="7.83" height="17.0" fill="#b6b6b6"/>
<rect x="299.9" y="111.0" width="7.83" height="17.0" fill="#1e1e1e"/>
<rect x="307.7" y="111.0" width="7.83" height="17.0" fill="#2f2f2f"/>
<rect x="315.5" y="111.0" width="7.83" height="17.0" fill="#1f1f1f"/>
<rect x="323.4" y="111.0" width="7.83" height="17.0" fill="#1f1f1f"/>
<rect x="331.2" y="111.0" width="7.83" height="17.0" fill="#242424"/>
<rect x="339.0" y="111.0" width="7.83" height="17.0" fill="#989898"/>
<text x="18" y="124.0" textLength="328.86" lengthAdjust="spacingAndGlyphs">  <tspan fill="#383838">▀</tspan><tspan fill="#c6c6c6">▀</tspan><tspan fill="#343434">▀</tspan><tspan fill="#212121">▀</tspan><tspan fill="#404040">▀</tspan><tspan fill="#505050">▀</tspan><tspan fill="#c0c0c0">▀</tspan><tspan fill="#3e3e3e">▀</tspan><tspan fill="#444444">▀</tspan><tspan fill="#777777">▀</tspan><tspan fill="#474747">▀</tspan><tspan fill="#3a3a3a">▀</tspan><tspan fill="#1e1e1e">▀</tspan><tspan fill="#f0f0f0">▀▀</tspan><tspan fill="#f0f0f0">▀</tspan><tspan fill="#f0f0f0">▀</tspan><tspan fill="#f0f0f0">▀</tspan><tspan fill="#303030">▀</tspan><tspan fill="#8c8c8c">▀</tspan><tspan fill="#1e1e1e">▀</tspan><tspan fill="#3f3f3f">▀</tspan><tspan fill="#b0b0b0">▀</tspan><tspan fill="#242424">▀</tspan><tspan fill="#ababab">▀</tspan><tspan fill="#262626">▀</tspan><tspan fill="#767676">▀</tspan><tspan fill="#787878">▀</tspan><tspan fill="#929292">▀</tspan><tspan fill="#1e1e1e">▀</tspan><tspan fill="#6f6f6f">▀</tspan><tspan fill="#323232">▀</tspan><tspan fill="#888888">▀</tspan><tspan fill="#b4b4b4">▀</tspan><tspan fill="#262626">▀</tspan><tspan fill="#8f8f8f">▀</tspan><tspan fill="#6b6b6b">▀</tspan><tspan fill="#5d5d5d">▀</tspan><tspan fill="#b5b5b5">▀</tspan><tspan fill="#9f9f9f">▀</tspan></text>
<rect x="33.7" y="128.0" width="7.83" height="17.0" fill="#515151"/>
<rect x="41.5" y="128.0" width="7.83" height="17.0" fill="#323232"/>
<rect x="49.3" y="128.0" width="7.83" height="17.0" fill="#424242"/>
<rect x="57.1" y="128.0" width="7.83" height="17.0" fill="#323232"/>
<rect x="65.0" y="128.0" width="7.83" height="17.0" fill="#f0f0f0"/>
<rect x="72.8" y="128.0" width="7.83" height="17.0" fill="#f0f0f0"/>
<rect x="80.6" y="128.0" width="7.83" height="17.0" fill="#f0f0f0"/>
<rect x="88.5" y="128.0" width="23.49" height="17.0" fill="#f0f0f0"/>
<rect x="112.0" y="128.0" width="7.83" height="17.0" fill="#303030"/>
<rect x="119.8" y="128.0" width="7.83" height="17.0" fill="#2d2d2d"/>
<rect x="127.6" y="128.0" width="7.83" height="17.0" fill="#343434"/>
<rect x="135.4" y="128.0" width="7.83" height="17.0" fill="#606060"/>
<rect x="143.3" y="128.0" width="7.83" height="17.0" fill="#8f8f8f"/>
<rect x="151.1" y="128.0" width="7.83" height="17.0" fill="#232323"/>
<rect x="158.9" y="128.0" width="7.83" height="17.0" fill="#454545"/>
<rect x="166.8" y="128.0" width="7.83" height="17.0" fill="#929292"/>
<rect x="174.6" y="128.0" width="7.83" height="17.0" fill="#515151"/>
<rect x="182.4" y="128.0" width="7.83" height="17.0" fill="#9f9f9f"/>
<rect x="190.3" y="128.0" width="7.83" height="17.0" fill="#202020"/>
<rect x="198.1" y="128.0" width="7.83" height="17.0" fill="#212121"/>
<rect x="205.9" y="128.0" width="7.83" height="17.0" fill="#6d6d6d"/>
<rect x="213.8" y="128.0" width="7.83" height="17.0" fill="#353535"/>
<rect x="221.6" y="128.0" width="7.83" height="17.0" fill="#b9b9b9"/>
<rect x="229.4" y="128.0" width="7.83" height="17.0" fill="#282828"/>
<rect x="237.2" y="128.0" width="7.83" height="17.0" fill="#535353"/>
<rect x="245.1" y="128.0" width="7.83" height="17.0" fill="#5e5e5e"/>
<rect x="252.9" y="128.0" width="7.83" height="17.0" fill="#4f4f4f"/>
<rect x="260.7" y="128.0" width="7.83" height="17.0" fill="#5b5b5b"/>
<rect x="268.6" y="128.0" width="7.83" height="17.0" fill="#1f1f1f"/>
<rect x="276.4" y="128.0" width="7.83" height="17.0" fill="#9c9c9c"/>
<rect x="284.2" y="128.0" width="7.83" height="17.0" fill="#1e1e1e"/>
<rect x="292.1" y="128.0" width="7.83" height="17.0" fill="#545454"/>
<rect x="299.9" y="128.0" width="7.83" height="17.0" fill="#555555"/>
<rect x="307.7" y="128.0" width="7.83" height="17.0" fill="#9d9d9d"/>
<rect x="315.5" y="128.0" width="7.83" height="17.0" fill="#292929"/>
<rect x="323.4" y="128.0" width="7.83" height="17.0" fill="#7b7b7b"/>
<rect x="331.2" y="128.0" width="7.83" height="17.0" fill="#3a3a3a"/>
<rect x="339.0" y="128.0" width="7.83" height="17.0" fill="#202020"/>
<text x="18" y="141.0" textLength="328.86" lengthAdjust="spacingAndGlyphs">  <tspan fill="#a7a7a7">▀</tspan><tspan fill="#434343">▀</tspan><tspan fill="#222222">▀</tspan><tspan fill="#626262">▀</tspan><tspan fill="#353535">▀</tspan><tspan fill="#848484">▀</tspan><tspan fill="#464646">▀</tspan><tspan fill="#f0f0f0">▀▀▀</tspan><tspan fill="#f0f0f0">▀</tspan><tspan fill="#f0f0f0">▀</tspan><tspan fill="#f0f0f0">▀</tspan><tspan fill="#929292">▀</tspan><tspan fill="#252525">▀</tspan><tspan fill="#9f9f9f">▀</tspan><tspan fill="#232323">▀</tspan><tspan fill="#343434">▀</tspan><tspan fill="#2f2f2f">▀</tspan><tspan fill="#878787">▀</tspan><tspan fill="#5a5a5a">▀</tspan><tspan fill="#aaaaaa">▀</tspan><tspan fill="#bababa">▀</tspan><tspan fill="#474747">▀</tspan><tspan fill="#1f1f1f">▀</tspan><tspan fill="#2d2d2d">▀</tspan><tspan fill="#737373">▀</tspan><tspan fill="#777777">▀</tspan><tspan fill="#646464">▀</tspan><tspan fill="#6e6e6e">▀</tspan><tspan fill="#737373">▀</tspan><tspan fill="#585858">▀</tspan><tspan fill="#c6c6c6">▀</tspan><tspan fill="#a4a4a4">▀</tspan><tspan fill="#c6c6c6">▀</tspan><tspan fill="#6a6a6a">▀</tspan><tspan fill="#636363">▀</tspan><tspan fill="#6f6f6f">▀</tspan><tspan fill="#b1b1b1">▀</tspan><tspan fill="#3f3f3f">▀</tspan></text>
<rect x="33.7" y="145.0" width="7.83" height="17.0" fill="#f0f0f0"/>
<rect x="41.5" y="145.0" width="23.49" height="17.0" fill="#f0f0f0"/>
<rect x="65.0" y="145.0" width="7.83" height="17.0" fill="#adadad"/>
<rect x="72.8" y="145.0" width="7.83" height="17.0" fill="#686868"/>
<rect x="80.6" y="145.0" width="7.83" height="17.0" fill="#717171"/>
<rect x="88.5" y="145.0" width="7.83" height="17.0" fill="#686868"/>
<rect x="96.3" y="145.0" width="7.83" height="17.0" fill="#515151"/>
<rect x="104.1" y="145.0" width="7.83" height="17.0" fill="#696969"/>
<rect x="112.0" y="145.0" width="7.83" height="17.0" fill="#969696"/>
<rect x="119.8" y="145.0" width="7.83" height="17.0" fill="#1e1e1e"/>
<rect x="127.6" y="145.0" width="7.83" height="17.0" fill="#8f8f8f"/>
<rect x="135.4" y="145.0" width="7.83" height="17.0" fill="#434343"/>
<rect x="143.3" y="145.0" width="7.83" height="17.0" fill="#272727"/>
<rect x="151.1" y="145.0" width="7.83" height="17.0" fill="#1e1e1e"/>
<rect x="158.9" y="145.0" width="7.83" height="17.0" fill="#1e1e1e"/>
<rect x="166.8" y="145.0" width="7.83" height="17.0" fill="#242424"/>
<rect x="174.6" y="145.0" width="7.83" height="17.0" fill="#535353"/>
<rect x="182.4" y="145.0" width="7.83" height="17.0" fill="#242424"/>
<rect x="190.3" y="145.0" width="7.83" height="17.0" fill="#383838"/>
<rect x="198.1" y="145.0" width="7.83" height="17.0" fill="#595959"/>
<rect x="205.9" y="145.0" width="7.83" height="17.0" fill="#272727"/>
<rect x="213.8" y="145.0" width="7.83" height="17.0" fill="#2b2b2b"/>
<rect x="221.6" y="145.0" width="7.83" height="17.0" fill="#474747"/>
<rect x="229.4" y="145.0" width="7.83" height="17.0" fill="#313131"/>
<rect x="237.2" y="145.0" width="7.83" height="17.0" fill="#c2c2c2"/>
<rect x="245.1" y="145.0" width="7.83" height="17.0" fill="#202020"/>
<rect x="252.9" y="145.0" width="7.83" height="17.0" fill="#747474"/>
<rect x="260.7" y="145.0" width="7.83" height="17.0" fill="#222222"/>
<rect x="268.6" y="145.0" width="7.83" height="17.0" fill="#202020"/>
<rect x="276.4" y="145.0" width="7.83" height="17.0" fill="#505050"/>
<rect x="284.2" y="145.0" width="7.83" height="17.0" fill="#2e2e2e"/>
<rect x="292.1" y="145.0" width="7.83" height="17.0" fill="#bababa"/>
<rect x="299.9" y="145.0" width="7.83" height="17.0" fill="#464646"/>
<rect x="307.7" y="145.0" width="7.83" height="17.0" fill="#292929"/>
<rect x="315.5" y="145.0" width="7.83" height="17.0" fill="#acacac"/>
<rect x="323.4" y="145.0" width="7.83" height="17.0" fill="#2c2c2c"/>
<rect x="331.2" y="145.0" width="7.83" height="17.0" fill="#595959"/>
<rect x="339.0" y="145.0" width="7.83" height="17.0" fill="#343434"/>
<text x="18" y="158.0" textLength="328.86" lengthAdjust="spacingAndGlyphs">  <tspan fill="#8c8c8c">▀</tspan><tspan fill="#f0f0f0">▀▀▀</tspan><tspan fill="#f0f0f0">▀</tspan><tspan fill="#f0f0f0">▀</tspan><tspan fill="#f0f0f0">▀</tspan><tspan fill="#8a8a8a">▀</tspan><tspan fill="#202020">▀</tspan><tspan fill="#1e1e1e">▀</tspan><tspan fill="#585858">▀</tspan><tspan fill="#232323">▀</tspan><tspan fill="#646464">▀</tspan><tspan fill="#3b3b3b">▀</tspan><tspan fill="#898989">▀</tspan><tspan fill="#7c7c7c">▀</tspan><tspan fill="#7b7b7b">▀</tspan><tspan fill="#c1c1c1">▀</tspan><tspan fill="#b8b8b8">▀</tspan><tspan fill="#575757">▀</tspan><tspan fill="#1f1f1f">▀</tspan><tspan fill="#6e6e6e">▀</tspan><tspan fill="#3d3d3d">▀</tspan><tspan fill="#343434">▀</tspan><tspan fill="#555555">▀</tspan><tspan fill="#202020">▀</tspan><tspan fill="#333333">▀</tspan><tspan fill="#7b7b7b">▀</tspan><tspan fill="#707070">▀</tspan><tspan fill="#585858">▀</tspan><tspan fill="#7b7b7b">▀</tspan><tspan fill="#272727">▀</tspan><tspan fill="#606060">▀</tspan><tspan fill="#323232">▀</tspan><tspan fill="#575757">▀</tspan><tspan fill="#686868">▀</tspan><tspan fill="#6c6c6c">▀</tspan><tspan fill="#5b5b5b">▀</tspan><tspan fill="#666666">▀</tspan><tspan fill="#828282">▀</tspan></text>
<rect x="33.7" y="162.0" width="7.83" height="17.0" fill="#3b3b3b"/>
<rect x="41.5" y="162.0" width="7.83" height="17.0" fill="#626262"/>
<rect x="49.3" y="162.0" width="7.83" height="17.0" fill="#858585"/>
<rect x="57.1" y="162.0" width="7.83" height="17.0" fill="#1e1e1e"/>
<rect x="65.0" y="162.0" width="7.83" height="17.0" fill="#1f1f1f"/>
<rect x="72.8" y="162.0" width="7.83" height="17.0" fill="#b3b3b3"/>
<rect x="80.6" y="162.0" width="7.83" height="17.0" fill="#2d2d2d"/>
<rect x="88.5" y="162.0" width="7.83" height="17.0" fill="#353535"/>
<rect x="96.3" y="162.0" width="7.83" height="17.0" fill="#434343"/>
<rect x="104.1" y="162.0" width="7.83" height="17.0" fill="#292929"/>
<rect x="112.0" y="162.0" width="7.83" height="17.0" fill="#6d6d6d"/>
<rect x="119.8" y="162.0" width="7.83" height="17.0" fill="#c0c0c0"/>
<rect x="127.6" y="162.0" width="7.83" height="17.0" fill="#9d9d9d"/>
<rect x="135.4" y="162.0" width="7.83" height="17.0" fill="#464646"/>
<rect x="143.3" y="162.0" width="7.83" height="17.0" fill="#2e2e2e"/>
<rect x="151.1" y="162.0" width="7.83" height="17.0" fill="#363636"/>
<rect x="158.9" y="162.0" width="7.83" height="17.0" fill="#1e1e1e"/>
<rect x="166.8" y="162.0" width="7.83" height="17.0" fill="#3b3b3b"/>
<rect x="174.6" y="162.0" width="7.83" height="17.0" fill="#202020"/>
<rect x="182.4" y="162.0" width="7.83" height="17.0" fill="#272727"/>
<rect x="190.3" y="162.0" width="7.83" height="17.0" fill="#262626"/>
<rect x="198.1" y="162.0" width="7.83" height="17.0" fill="#929292"/>
<rect x="205.9" y="162.0" width="7.83" height="17.0" fill="#272727"/>
<rect x="213.8" y="162.0" width="7.83" height="17.0" fill="#515151"/>
<rect x="221.6" y="162.0" width="7.83" height="17.0" fill="#222222"/>
<rect x="229.4" y="162.0" width="7.83" height="17.0" fill="#3c3c3c"/>
<rect x="237.2" y="162.0" width="7.83" height="17.0" fill="#1e1e1e"/>
<rect x="245.1" y="162.0" width="7.83" height="17.0" fill="#1e1e1e"/>
<rect x="252.9" y="162.0" width="7.83" height="17.0" fill="#a5a5a5"/>
<rect x="260.7" y="162.0" width="7.83" height="17.0" fill="#484848"/>
<rect x="268.6" y="162.0" width="7.83" height="17.0" fill="#1e1e1e"/>
<rect x="276.4" y="162.0" width="7.83" height="17.0" fill="#505050"/>
<rect x="284.2" y="162.0" width="7.83" height="17.0" fill="#5f5f5f"/>
<rect x="292.1" y="162.0" width="7.83" height="17.0" fill="#aeaeae"/>
<rect x="299.9" y="162.0" width="7.83" height="17.0" fill="#565656"/>
<rect x="307.7" y="162.0" width="7.83" height="17.0" fill="#c1c1c1"/>
<rect x="315.5" y="162.0" width="7.83" height="17.0" fill="#545454"/>
<rect x="323.4" y="162.0" width="7.83" height="17.0" fill="#2e2e2e"/>
<rect x="331.2" y="162.0" width="7.83" height="17.0" fill="#404040"/>
<rect x="339.0" y="162.0" width="7.83" height="17.0" fill="#222222"/>
<text x="18" y="175.0" textLength="328.86" lengthAdjust="spacingAndGlyphs">  <tspan fill="#f0f0f0">▀</tspan><tspan fill="#2f2f2f">▀</tspan><tspan fill="#565656">▀</tspan><tspan fill="#c2c2c2">▀</tspan><tspan fill="#696969">▀</tspan><tspan fill="#9d9d9d">▀</tspan><tspan fill="#272727">▀</tspan><tspan fill="#aeaeae">▀</tspan><tspan fill="#242424">▀</tspan><tspan fill="#252525">▀</tspan><tspan fill="#787878">▀</tspan><tspan fill="#292929">▀</tspan><tspan fill="#8e8e8e">▀</tspan><tspan fill="#424242">▀</tspan><tspan fill="#565656">▀</tspan><tspan fill="#313131">▀</tspan><tspan fill="#515151">▀</tspan><tspan fill="#717171">▀</tspan><tspan fill="#b1b1b1">▀</tspan><tspan fill="#3f3f3f">▀</tspan><tspan fill="#717171">▀</tspan><tspan fill="#979797">▀</tspan><tspan fill="#363636">▀</tspan><tspan fill="#adadad">▀</tspan><tspan fill="#414141">▀</tspan><tspan fill="#383838">▀</tspan><tspan fill="#727272">▀</tspan><tspan fill="#474747">▀</tspan><tspan fill="#363636">▀</tspan><tspan fill="#aeaeae">▀</tspan><tspan fill="#242424">▀</tspan><tspan fill="#b1b1b1">▀</tspan><tspan fill="#202020">▀</tspan><tspan fill="#373737">▀</tspan><tspan fill="#1e1e1e">▀</tspan><tspan fill="#606060">▀</tspan><tspan fill="#676767">▀</tspan><tspan fill="#272727">▀</tspan><tspan fill="#a6a6a6">▀</tspan><tspan fill="#a2a2a2">▀</tspan></text>
<rect x="33.7" y="179.0" width="7.83" height="17.0" fill="#262626"/>
<rect x="41.5" y="179.0" width="7.83" height="17.0" fill="#333333"/>
<rect x="49.3" y="179.0" width="7.83" height="17.0" fill="#666666"/>
<rect x="57.1" y="179.0" width="7.83" height="17.0" fill="#4f4f4f"/>
<rect x="65.0" y="179.0" width="7.83" height="17.0" fill="#c6c6c6"/>
<rect x="72.8" y="179.0" width="7.83" height="17.0" fill="#7e7e7e"/>
<rect x="80.6" y="179.0" width="7.83" height="17.0" fill="#222222"/>
<rect x="88.5" y="179.0" width="7.83" height="17.0" fill="#6c6c6c"/>
<rect x="96.3" y="179.0" width="7.83" height="17.0" fill="#2a2a2a"/>
<rect x="104.1" y="179.0" width="7.83" height="17.0" fill="#afafaf"/>
<rect x="112.0" y="179.0" width="7.83" height="17.0" fill="#383838"/>
<rect x="119.8" y="179.0" width="7.83" height="17.0" fill="#6d6d6d"/>
<rect x="127.6" y="179.0" width="7.83" height="17.0" fill="#939393"/>
<rect x="135.4" y="179.0" width="7.83" height="17.0" fill="#6c6c6c"/>
<rect x="143.3" y="179.0" width="7.83" height="17.0" fill="#ababab"/>
<rect x="151.1" y="179.0" width="7.83" height="17.0" fill="#999999"/>
<rect x="158.9" y="179.0" width="7.83" height="17.0" fill="#828282"/>
<rect x="166.8" y="179.0" width="7.83" height="17.0" fill="#b7b7b7"/>
<rect x="174.6" y="179.0" width="7.83" height="17.0" fill="#505050"/>
<rect x="182.4" y="179.0" width="7.83" height="17.0" fill="#9f9f9f"/>
<rect x="190.3" y="179.0" width="7.83" height="17.0" fill="#242424"/>
<rect x="198.1" y="179.0" width="7.83" height="17.0" fill="#353535"/>
<rect x="205.9" y="179.0" width="7.83" height="17.0" fill="#1e1e1e"/>
<rect x="213.8" y="179.0" width="7.83" height="17.0" fill="#202020"/>
<rect x="221.6" y="179.0" width="7.83" height="17.0" fill="#3c3c3c"/>
<rect x="229.4" y="179.0" width="7.83" height="17.0" fill="#484848"/>
<rect x="237.2" y="179.0" width="7.83" height="17.0" fill="#222222"/>
<rect x="245.1" y="179.0" width="7.83" height="17.0" fill="#505050"/>
<rect x="252.9" y="179.0" width="7.83" height="17.0" fill="#7d7d7d"/>
<rect x="260.7" y="179.0" width="7.83" height="17.0" fill="#a4a4a4"/>
<rect x="268.6" y="179.0" width="7.83" height="17.0" fill="#838383"/>
<rect x="276.4" y="179.0" width="7.83" height="17.0" fill="#616161"/>
<rect x="284.2" y="179.0" width="7.83" height="17.0" fill="#1f1f1f"/>
<rect x="292.1" y="179.0" width="7.83" height="17.0" fill="#2b2b2b"/>
<rect x="299.9" y="179.0" width="7.83" height="17.0" fill="#333333"/>
<rect x="307.7" y="179.0" width="7.83" height="17.0" fill="#929292"/>
<rect x="315.5" y="179.0" width="7.83" height="17.0" fill="#4e4e4e"/>
<rect x="323.4" y="179.0" width="7.83" height="17.0" fill="#313131"/>
<rect x="331.2" y="179.0" width="7.83" height="17.0" fill="#484848"/>
<rect x="339.0" y="179.0" width="7.83" height="17.0" fill="#494949"/>
<text x="18" y="192.0" textLength="328.86" lengthAdjust="spacingAndGlyphs">  <tspan fill="#292929">▀</tspan><tspan fill="#434343">▀</tspan><tspan fill="#505050">▀</tspan><tspan fill="#212121">▀</tspan><tspan fill="#b2b2b2">▀</tspan><tspan fill="#242424">▀</tspan><tspan fill="#6e6e6e">▀</tspan><tspan fill="#5f5f5f">▀</tspan><tspan fill="#696969">▀</tspan><tspan fill="#4a4a4a">▀</tspan><tspan fill="#212121">▀</tspan><tspan fill="#4e4e4e">▀</tspan><tspan fill="#6c6c6c">▀</tspan><tspan fill="#282828">▀</tspan><tspan fill="#232323">▀</tspan><tspan fill="#8b8b8b">▀</tspan><tspan fill="#b0b0b0">▀</tspan><tspan fill="#1f1f1f">▀</tspan><tspan fill="#3d3d3d">▀</tspan><tspan fill="#292929">▀</tspan><tspan fill="#5c5c5c">▀</tspan><tspan fill="#737373">▀</tspan><tspan fill="#272727">▀</tspan><tspan fill="#747474">▀</tspan><tspan fill="#4b4b4b">▀</tspan><tspan fill="#1f1f1f">▀</tspan><tspan fill="#a8a8a8">▀</tspan><tspan fill="#585858">▀</tspan><tspan fill="#434343">▀</tspan><tspan fill="#4a4a4a">▀</tspan><tspan fill="#2b2b2b">▀</tspan><tspan fill="#212121">▀</tspan><tspan fill="#979797">▀</tspan><tspan fill="#7f7f7f">▀</tspan><tspan fill="#202020">▀</tspan><tspan fill="#2c2c2c">▀</tspan><tspan fill="#aaaaaa">▀</tspan><tspan fill="#4e4e4e">▀</tspan><tspan fill="#1f1f1f">▀</tspan><tspan fill="#363636">▀</tspan></text>
<text x="18" y="209.0" textLength="0.00" lengthAdjust="spacingAndGlyphs"></text>
<text x="18" y="226.0" textLength="563.76" lengthAdjust="spacingAndGlyphs"><tspan fill="#6cb6ff">Static</tspan><tspan fill="#6cb6ff"> </tspan><tspan fill="#6cb6ff">is</tspan><tspan fill="#6cb6ff"> </tspan><tspan fill="#6cb6ff">a</tspan><tspan fill="#6cb6ff"> </tspan><tspan fill="#6cb6ff">broadcast</tspan><tspan fill="#6cb6ff"> </tspan><tspan fill="#6cb6ff">studio</tspan><tspan fill="#6cb6ff"> </tspan><tspan fill="#6cb6ff">that</tspan><tspan fill="#6cb6ff"> </tspan><tspan fill="#6cb6ff">never</tspan><tspan fill="#6cb6ff"> </tspan><tspan fill="#6cb6ff">existed,</tspan><tspan fill="#6cb6ff"> </tspan><tspan fill="#6cb6ff">rendered</tspan><tspan fill="#6cb6ff"> </tspan><tspan fill="#6cb6ff">from</tspan><tspan fill="#6cb6ff"> </tspan><tspan fill="#6cb6ff">reference</tspan></text>
<text x="18" y="243.0" textLength="595.08" lengthAdjust="spacingAndGlyphs"><tspan fill="#6cb6ff">photographs</tspan><tspan fill="#6cb6ff"> </tspan><tspan fill="#6cb6ff">of</tspan><tspan fill="#6cb6ff"> </tspan><tspan fill="#6cb6ff">four</tspan><tspan fill="#6cb6ff"> </tspan><tspan fill="#6cb6ff">different</tspan><tspan fill="#6cb6ff"> </tspan><tspan fill="#6cb6ff">ones:</tspan><tspan fill="#6cb6ff"> </tspan><tspan fill="#6cb6ff">mismatched</tspan><tspan fill="#6cb6ff"> </tspan><tspan fill="#6cb6ff">furniture,</tspan><tspan fill="#6cb6ff"> </tspan><tspan fill="#6cb6ff">a</tspan><tspan fill="#6cb6ff"> </tspan><tspan fill="#6cb6ff">mixing</tspan><tspan fill="#6cb6ff"> </tspan><tspan fill="#6cb6ff">desk</tspan><tspan fill="#6cb6ff"> </tspan><tspan fill="#6cb6ff">with</tspan></text>
<text x="18" y="260.0" textLength="555.93" lengthAdjust="spacingAndGlyphs"><tspan fill="#6cb6ff">somebody's</tspan><tspan fill="#6cb6ff"> </tspan><tspan fill="#6cb6ff">tea</tspan><tspan fill="#6cb6ff"> </tspan><tspan fill="#6cb6ff">on</tspan><tspan fill="#6cb6ff"> </tspan><tspan fill="#6cb6ff">it,</tspan><tspan fill="#6cb6ff"> </tspan><tspan fill="#6cb6ff">and</tspan><tspan fill="#6cb6ff"> </tspan><tspan fill="#6cb6ff">every</tspan><tspan fill="#6cb6ff"> </tspan><tspan fill="#6cb6ff">wall</tspan><tspan fill="#6cb6ff"> </tspan><tspan fill="#6cb6ff">a</tspan><tspan fill="#6cb6ff"> </tspan><tspan fill="#6cb6ff">live</tspan><tspan fill="#6cb6ff"> </tspan><tspan fill="#6cb6ff">feed</tspan><tspan fill="#6cb6ff"> </tspan><tspan fill="#6cb6ff">of</tspan><tspan fill="#6cb6ff"> </tspan><tspan fill="#6cb6ff">something</tspan><tspan fill="#6cb6ff"> </tspan><tspan fill="#6cb6ff">happening</tspan></text>
<text x="18" y="277.0" textLength="250.56" lengthAdjust="spacingAndGlyphs"><tspan fill="#6cb6ff">elsewhere</tspan><tspan fill="#6cb6ff"> </tspan><tspan fill="#6cb6ff">in</tspan><tspan fill="#6cb6ff"> </tspan><tspan fill="#6cb6ff">the</tspan><tspan fill="#6cb6ff"> </tspan><tspan fill="#6cb6ff">city</tspan><tspan fill="#6cb6ff"> </tspan><tspan fill="#6cb6ff">right</tspan><tspan fill="#6cb6ff"> </tspan><tspan fill="#6cb6ff">now.</tspan></text>
<text x="18" y="294.0" textLength="0.00" lengthAdjust="spacingAndGlyphs"></text>
<text x="18" y="311.0" textLength="595.08" lengthAdjust="spacingAndGlyphs"><tspan fill="#24345c">───</tspan><tspan fill="#00f0ff"> what they know about you </tspan><tspan fill="#24345c">───────────────────────────────────────────────</tspan></text>
<text x="18" y="328.0" textLength="266.22" lengthAdjust="spacingAndGlyphs"><tspan fill="#7d8cb0">nights</tspan>      3, the last on shift 4</text>
<text x="18" y="345.0" textLength="579.42" lengthAdjust="spacingAndGlyphs"><tspan fill="#7d8cb0">doors</tspan><tspan fill="#7d8cb0"> </tspan><tspan fill="#7d8cb0">open</tspan>  sign on a auth (interior), queue on a fileserver (restricted),</text>
<text x="18" y="362.0" textLength="508.95" lengthAdjust="spacingAndGlyphs">            webapp on a workstation (perimeter), vpn on a gateway</text>
<text x="18" y="379.0" textLength="250.56" lengthAdjust="spacingAndGlyphs">            (perimeter) and more</text>
<text x="18" y="396.0" textLength="242.73" lengthAdjust="spacingAndGlyphs"><tspan fill="#7d8cb0">seen</tspan><tspan fill="#7d8cb0"> </tspan><tspan fill="#7d8cb0">you</tspan>    chain x2 (expected)</text>
<text x="18" y="413.0" textLength="101.79" lengthAdjust="spacingAndGlyphs"><tspan fill="#7d8cb0">patched</tspan>     2</text>
</svg>
